# xmcd
#
# Track frame offsets: 
#        150
#        18449
#        29418
#        46765
#        59546
#        64044
#        77511
#        88101
#        98233
#        107076
#        127482
#        143370
#        156614
#        169885
#        178896
#        195396
#
# Disc length: 2908 seconds
#
# Revision: 0
# Processed by: cddbd v1.5.2PL0 Copyright (c) Steve Scherf et al.
# Submitted via: ExactAudioCopy v0.99pb4
#
DISCID=dd0b5a10
DTITLE=Hat Fitz - Play Me Something New
DYEAR=2008
DGENRE=Blues
TTITLE0=play me sumthin' new
TTITLE1=poor boy blooze
TTITLE2=ragged 'n' dirty
TTITLE3=black girl
TTITLE4=family rodent run
TTITLE5=go with her
TTITLE6=old police sergant blooze
TTITLE7=trimmed 'n' burnin'
TTITLE8=ezinu
TTITLE9=brownzville
TTITLE10=western plains
TTITLE11=dont neva drive
TTITLE12=divin duck
TTITLE13=gorgia rag
TTITLE14=hold my hand
TTITLE15=roosta crows
EXTD=
EXTT0=
EXTT1=
EXTT2=
EXTT3=
EXTT4=
EXTT5=
EXTT6=
EXTT7=
EXTT8=
EXTT9=
EXTT10=
EXTT11=
EXTT12=
EXTT13=
EXTT14=
EXTT15=
PLAYORDER=
